<?xml version="1.0" encoding="UTF-8"?>
<svg xmlns="http://www.w3.org/2000/svg" xmlns:xlink="http://www.w3.org/1999/xlink" width="960px" height="960px" viewBox="0 0 960 960" version="1.1">
    <g id="surface1">
        <rect x="0" y="0" width="960" height="960" style="fill:rgb(18.399048%,21.199036%,25.099182%);fill-opacity:1;stroke:none;"/>
        <path style=" stroke:none;fill-rule:nonzero;fill:rgb(96.099854%,96.499634%,97.999573%);fill-opacity:1;" d="M 317.019531 297.398438 C 321.839844 296.828125 325.949219 298.25 329.351562 301.648438 C 332.75 305.050781 334.449219 309.160156 334.449219 313.96875 C 334.449219 318.789062 332.75 322.828125 329.351562 326.089844 C 325.949219 329.339844 321.839844 330.828125 317.019531 330.550781 C 314.191406 329.980469 311.28125 329.628906 308.308594 329.488281 C 305.328125 329.339844 302.289062 329.128906 299.171875 328.851562 L 298.320312 328.851562 C 296.621094 328.851562 295.339844 329.839844 294.488281 331.820312 L 208.210938 596.621094 C 206.230469 602.289062 202.828125 606.898438 198.011719 610.441406 C 193.191406 613.980469 187.671875 615.75 181.429688 615.75 C 175.480469 615.75 170.101562 613.980469 165.28125 610.441406 C 160.460938 606.898438 157.058594 602.289062 155.078125 596.621094 L 68.796875 331.820312 C 67.945312 329.839844 66.671875 328.851562 64.972656 328.851562 C 62.136719 328.851562 59.164062 328.988281 56.046875 329.269531 C 52.929688 329.558594 49.8125 329.980469 46.695312 330.550781 C 42.160156 330.828125 38.121094 329.339844 34.582031 326.089844 C 31.039062 322.828125 29.269531 318.789062 29.269531 313.96875 C 29.269531 309.160156 31.039062 305.050781 34.582031 301.648438 C 38.121094 298.25 42.160156 296.828125 46.695312 297.398438 C 54.914062 298.25 62.136719 298.878906 68.371094 299.308594 C 74.605469 299.730469 80.414062 299.949219 85.800781 299.949219 C 91.464844 299.949219 97.417969 299.730469 103.648438 299.308594 C 109.878906 298.878906 116.96875 298.25 124.898438 297.398438 C 129.71875 296.828125 133.898438 298.25 137.441406 301.648438 C 140.980469 305.050781 142.75 309.160156 142.75 313.96875 C 142.75 318.789062 140.980469 322.828125 137.441406 326.089844 C 133.898438 329.339844 129.71875 330.828125 124.898438 330.550781 C 122.070312 329.980469 119.160156 329.628906 116.191406 329.488281 C 113.210938 329.339844 110.171875 329.128906 107.050781 328.851562 L 106.199219 328.851562 C 103.648438 328.851562 102.800781 330.269531 103.648438 333.101562 L 179.308594 569.421875 C 180.441406 571.398438 181.289062 572.398438 181.859375 572.398438 C 182.988281 572.398438 183.839844 571.398438 184.410156 569.421875 L 260.921875 333.101562 C 260.921875 332.820312 260.988281 332.53125 261.128906 332.25 C 261.269531 331.96875 261.339844 331.679688 261.339844 331.398438 C 261.339844 329.699219 260.351562 328.851562 258.371094 328.851562 C 254.960938 328.851562 251.640625 328.988281 248.378906 329.269531 C 245.121094 329.558594 241.929688 329.980469 238.808594 330.550781 C 234 330.828125 229.820312 329.339844 226.269531 326.089844 C 222.730469 322.828125 220.960938 318.789062 220.960938 313.96875 C 220.960938 309.160156 222.730469 305.050781 226.269531 301.648438 C 229.820312 298.25 234 296.828125 238.808594 297.398438 C 247.03125 298.25 254.191406 298.878906 260.28125 299.308594 C 266.371094 299.730469 272.25 299.949219 277.921875 299.949219 C 283.578125 299.949219 289.460938 299.730469 295.558594 299.308594 C 301.648438 298.878906 308.800781 298.25 317.019531 297.398438 Z M 640.46875 526.921875 C 645 530.878906 647.269531 535.839844 647.269531 541.789062 C 647.269531 545.761719 646.269531 549.160156 644.289062 551.988281 C 630.410156 571.261719 612.839844 586.710938 591.589844 598.320312 C 570.328125 609.941406 547.238281 615.75 522.300781 615.75 C 501.339844 615.75 481.640625 611.570312 463.21875 603.210938 C 444.808594 594.851562 428.648438 583.378906 414.769531 568.78125 C 400.878906 554.191406 389.980469 537.261719 382.039062 517.988281 C 374.109375 498.71875 370.140625 478.179688 370.140625 456.359375 C 370.140625 434.261719 374.109375 413.640625 382.039062 394.519531 C 389.980469 375.390625 400.878906 358.53125 414.769531 343.941406 C 428.648438 329.339844 444.808594 317.941406 463.21875 309.71875 C 481.640625 301.5 501.339844 297.398438 522.300781 297.398438 C 543.558594 297.398438 562.328125 300.800781 578.621094 307.601562 C 594.921875 314.398438 609.441406 323.890625 622.191406 336.070312 C 627.859375 341.460938 632.960938 347.410156 637.488281 353.929688 C 642.019531 360.441406 644.289062 367.53125 644.289062 375.179688 C 644.289062 382.261719 641.738281 388.5 636.640625 393.878906 C 631.539062 399.261719 625.308594 401.960938 617.941406 401.960938 C 610.289062 401.960938 604.050781 399.261719 599.238281 393.878906 C 594.421875 388.5 592.011719 382.398438 592.011719 375.601562 C 592.011719 370.21875 593.429688 365.539062 596.261719 361.578125 C 597.679688 359.308594 597.539062 357.46875 595.839844 356.050781 C 586.769531 346.128906 575.789062 339.121094 562.898438 335.011719 C 550 330.898438 536.46875 328.851562 522.300781 328.851562 C 499.351562 328.851562 478.949219 334.519531 461.101562 345.851562 C 443.25 357.179688 429.148438 372.421875 418.808594 391.539062 C 408.460938 410.671875 403.289062 432.28125 403.289062 456.359375 C 403.289062 480.449219 408.539062 501.980469 419.019531 520.96875 C 429.5 539.949219 443.738281 554.898438 461.738281 565.808594 C 479.730469 576.71875 499.921875 582.171875 522.300781 582.171875 C 542.710938 582.171875 561.410156 577.570312 578.410156 568.359375 C 595.410156 559.148438 609.148438 546.609375 619.640625 530.738281 C 622.761719 526.210938 626.859375 523.941406 631.960938 523.941406 C 635.359375 523.941406 638.199219 524.929688 640.46875 526.921875 Z M 749.761719 379 C 748.910156 390.050781 751.25 399.121094 756.769531 406.210938 C 762.300781 413.289062 769.949219 419.171875 779.730469 423.851562 C 789.5 428.519531 800.269531 432.699219 812.03125 436.378906 C 823.789062 440.070312 835.691406 444.03125 847.730469 448.28125 C 859.769531 452.539062 870.828125 457.921875 880.878906 464.441406 C 890.941406 470.949219 899.019531 479.308594 905.109375 489.511719 C 911.199219 499.710938 914.25 512.46875 914.25 527.769531 C 914.25 545.621094 909.5 561.128906 900.011719 574.308594 C 890.519531 587.488281 877.839844 597.691406 861.96875 604.910156 C 846.101562 612.140625 828.820312 615.75 810.121094 615.75 C 785.179688 615.75 764.351562 611.21875 747.628906 602.148438 C 730.921875 593.078125 718.019531 583.160156 708.960938 572.398438 C 705.558594 568.429688 703.011719 564.25 701.308594 559.859375 C 699.609375 555.46875 698.75 551.289062 698.75 547.320312 C 698.75 540.238281 701.089844 534.140625 705.769531 529.039062 C 710.441406 523.941406 717.171875 521.390625 725.960938 521.390625 C 733.039062 521.390625 738.921875 524.078125 743.601562 529.46875 C 748.269531 534.851562 750.609375 540.800781 750.609375 547.320312 C 750.609375 551.851562 749.621094 555.960938 747.628906 559.648438 C 746.78125 561.910156 747.070312 563.75 748.480469 565.171875 C 756.140625 571.691406 764.851562 576.429688 774.621094 579.410156 C 784.398438 582.390625 794.390625 583.871094 804.589844 583.871094 C 817.621094 583.871094 829.949219 581.609375 841.570312 577.070312 C 853.191406 572.539062 862.679688 566.019531 870.050781 557.519531 C 877.410156 549.019531 881.101562 539.101562 881.101562 527.769531 C 881.101562 517.570312 878.121094 509.140625 872.171875 502.480469 C 866.21875 495.820312 858.359375 490.21875 848.578125 485.691406 C 838.808594 481.148438 828.109375 476.980469 816.488281 473.148438 C 804.871094 469.320312 793.179688 465.21875 781.429688 460.820312 C 769.671875 456.429688 758.898438 450.980469 749.121094 444.460938 C 739.351562 437.941406 731.480469 429.871094 725.53125 420.230469 C 719.578125 410.601562 716.609375 398.558594 716.609375 384.101562 C 716.609375 362.851562 721.488281 345.851562 731.269531 333.101562 C 741.050781 320.351562 753.660156 311.140625 769.101562 305.46875 C 784.539062 299.800781 800.480469 296.96875 816.921875 296.96875 C 832.78125 296.96875 847.800781 299.171875 861.96875 303.558594 C 876.140625 307.949219 887.761719 313.96875 896.820312 321.621094 C 905.890625 329.269531 910.421875 338.058594 910.421875 347.980469 C 910.140625 355.058594 907.519531 361.21875 902.558594 366.460938 C 897.601562 371.710938 891.441406 374.328125 884.070312 374.328125 C 876.988281 374.328125 870.898438 371.710938 865.800781 366.460938 C 860.699219 361.21875 858.140625 355.058594 858.140625 347.980469 C 858.140625 346.839844 858.21875 345.710938 858.359375 344.578125 C 858.5 343.441406 858.710938 342.308594 859 341.171875 C 859.558594 338.621094 859.699219 337.351562 859.421875 337.351562 C 856.019531 335.078125 850.351562 333.03125 842.421875 331.191406 C 834.480469 329.339844 825.699219 328.421875 816.070312 328.421875 C 806.148438 328.421875 796.300781 329.910156 786.53125 332.890625 C 776.75 335.859375 768.460938 340.960938 761.660156 348.191406 C 754.859375 355.410156 750.890625 365.691406 749.761719 379 Z M 749.761719 379 "/>
    </g>
</svg>
